<svg xmlns="http://www.w3.org/2000/svg" version="1.1" xmlns:xlink="http://www.w3.org/1999/xlink" xmlns:svgjs="http://svgjs.dev/svgjs" width="1500" height="2828" viewBox="0 0 1500 2828"><g transform="matrix(1,0,0,1,2.1134133042528447,1.144939271254998)"><svg viewBox="0 0 131 247" data-background-color="#ffffff" preserveAspectRatio="xMidYMid meet" height="2828" width="1500" xmlns="http://www.w3.org/2000/svg" xmlns:xlink="http://www.w3.org/1999/xlink"><g id="tight-bounds" transform="matrix(1,0,0,1,-0.18457142857141662,-0.09999999999999432)"><svg viewBox="0 0 131.36914285714286 247.2" height="247.2" width="131.36914285714286"><g><svg viewBox="0 0 131.36914285714286 247.2" height="247.2" width="131.36914285714286"><g><svg viewBox="0 0 131.36914285714286 247.2" height="247.2" width="131.36914285714286"><g id="textblocktransform"><svg viewBox="0 0 131.36914285714286 247.2" height="247.2" width="131.36914285714286" id="textblock"><g><svg viewBox="0 0 131.36914285714286 247.2" height="247.2" width="131.36914285714286"><g transform="matrix(1,0,0,1,0,0)"><svg width="131.36914285714286" viewBox="3.1 -35 18.599999999999998 35" height="247.2" data-palette-color="#f6498d"><path d="M7.75 0L3.1 0 3.1-35 18.1-35Q19.55-35 20.63-33.95 21.7-32.9 21.7-31.4L21.7-31.4 21.7-20.65Q21.7-19.15 20.63-18.1 19.55-17.05 18.1-17.05L18.1-17.05 7.75-17.05 7.75 0ZM7.75-30.35L7.75-21.7 15.25-21.7Q16-21.7 16.53-22.23 17.05-22.75 17.05-23.5L17.05-23.5 17.05-28.6Q17.05-29.3 16.53-29.83 16-30.35 15.25-30.35L15.25-30.35 7.75-30.35Z" opacity="1" transform="matrix(1,0,0,1,0,0)" fill="#f6498d" class="wordmark-text-0" data-fill-palette-color="primary" id="text-0"></path></svg></g></svg></g></svg></g></svg></g><g></g></svg></g><defs></defs></svg><rect width="131.36914285714286" height="247.2" fill="none" stroke="none" visibility="hidden"></rect></g></svg></g></svg>