<?xml version="1.0" standalone="no"?><svg xmlns="http://www.w3.org/2000/svg" viewBox="0 0 1440 320"><path fill="#33132e" fill-opacity="1" d="M0,256L40,245.3C80,235,160,213,240,208C320,203,400,213,480,202.7C560,192,640,160,720,165.3C800,171,880,213,960,224C1040,235,1120,213,1200,186.7C1280,160,1360,128,1400,112L1440,96L1440,320L1400,320C1360,320,1280,320,1200,320C1120,320,1040,320,960,320C880,320,800,320,720,320C640,320,560,320,480,320C400,320,320,320,240,320C160,320,80,320,40,320L0,320Z"></path></svg>